# xmcd CD Database Entry
#
# Track frame offsets:
# 150
# 14760
# 29102
# 43460
# 48502
# 53995
# 58617
# 63535
# 68807
# 73082
# 79425
# 92665
# 100695
# 109632
# 112685
# 120172
# 122142
# 126042
# 129685
# 132152
# 136527
# 139560
# 142680
# 154315
# 158425
#
# Disc length: 2480 seconds
#
# Revision: 1
# Processed by: cddbd v1.4PL0 Copyright (c) Steve Scherf et al.
# Submitted via: tcd 2.0b
#
DISCID=6209ae19
DTITLE=John Lurie - African Swim and Manny and Lo
DYEAR=1900
DGENRE=
TTITLE0=Main Titles
TTITLE1=Al Al Al Al
TTITLE2=Big Trouble
TTITLE3=Men Working
TTITLE4=Teddy Bears Nik Pop
TTITLE5=Sex With Al
TTITLE6=Gun Dance
TTITLE7=Tomato Fight
TTITLE8=Al Is Hated
TTITLE9=Vibe Whoops
TTITLE10=Goodbye to Peach
TTITLE11=African Swim (End Titles)
TTITLE12=Manny and Lo (Main Titles)
TTITLE13=Tiffany's Bedroom
TTITLE14=Driving Into Country
TTITLE15=Manny With Lunchbox
TTITLE16=She's Not A Nurse
TTITLE17=Manny Leaves Lo
TTITLE18=Monster Trucks
TTITLE19=Lo Crawls Through Window
TTITLE20=Wild Bill
TTITLE21=Dream Elaine Driving
TTITLE22=Kidnapping Elaine
TTITLE23=Hypnotize the Lizard
TTITLE24=Manny and Lo (end titles)
EXTD=
EXTT0=
EXTT1=
EXTT2=
EXTT3=
EXTT4=
EXTT5=
EXTT6=
EXTT7=
EXTT8=
EXTT9=
EXTT10=
EXTT11=
EXTT12=
EXTT13=
EXTT14=
EXTT15=
EXTT16=
EXTT17=
EXTT18=
EXTT19=
EXTT20=
EXTT21=
EXTT22=
EXTT23=
EXTT24=
PLAYORDER=
